<?xml version="1.0" encoding="UTF-8" standalone="no"?>
<!DOCTYPE svg PUBLIC "-//W3C//DTD SVG 1.1//EN" "http://www.w3.org/Graphics/SVG/1.1/DTD/svg11.dtd">
<svg width="100%" height="100%" viewBox="0 0 3968 2507" version="1.1" xmlns="http://www.w3.org/2000/svg" xmlns:xlink="http://www.w3.org/1999/xlink" xml:space="preserve" xmlns:serif="http://www.serif.com/" style="fill-rule:evenodd;clip-rule:evenodd;stroke-linejoin:round;stroke-miterlimit:2;">
    <g transform="matrix(1,0,0,1,-16.177426,-746.740188)">
        <g transform="matrix(1.672306,0,0,1.672306,-1344.432476,-1344.348025)">
            <g>
                <g>
                    <clipPath id="_clip1">
                        <path d="M875.352,2686.422C901.902,2704.93 933.875,2715.289 965.645,2715.289L3042.641,2715.289C3074.469,2715.289 3106.359,2704.949 3132.73,2686.469L2367.031,2081.711L2099.422,2327.641C2071.309,2353.48 2034.039,2367.711 1994.488,2367.711C1954.941,2367.711 1917.672,2353.48 1889.57,2327.641L1630.91,2089.961L875.352,2686.422ZM3042.641,2749.262L965.645,2749.262C918.895,2749.262 871.871,2730.91 836.625,2698.922L821.773,2685.441L1632.578,2045.359L1912.551,2302.629C1957.73,2344.16 2031.25,2344.16 2076.441,2302.629L2365.371,2037.109L3186.172,2685.391L3171.449,2698.871C3136.461,2730.891 3089.52,2749.262 3042.641,2749.262Z"/>
                    </clipPath>
                    <g clip-path="url(#_clip1)">
                        <g>
                            <g>
                                <g>
                                    <clipPath id="_clip2">
                                        <path d="M875.352,2686.422C901.902,2704.93 933.875,2715.289 965.645,2715.289L3042.641,2715.289C3074.469,2715.289 3106.359,2704.949 3132.73,2686.469L2367.031,2081.711L2099.422,2327.641C2071.309,2353.48 2034.039,2367.711 1994.488,2367.711C1954.941,2367.711 1917.672,2353.48 1889.57,2327.641L1630.91,2089.961L875.352,2686.422ZM3042.641,2749.262L965.645,2749.262C918.895,2749.262 871.871,2730.91 836.625,2698.922L821.773,2685.441L1632.578,2045.359L1912.551,2302.629C1957.73,2344.16 2031.25,2344.16 2076.441,2302.629L2365.371,2037.109L3186.172,2685.391L3171.449,2698.871C3136.461,2730.891 3089.52,2749.262 3042.641,2749.262"/>
                                    </clipPath>
                                    <g clip-path="url(#_clip2)">
                                        <rect x="821.773" y="2037.109" width="2364.398" height="712.152" style="fill:rgb(204,185,157);"/>
                                    </g>
                                </g>
                            </g>
                        </g>
                    </g>
                </g>
            </g>
        </g>
        <g transform="matrix(1.672306,0,0,1.672306,-1344.432476,-1344.348025)">
            <g>
                <g>
                    <clipPath id="_clip3">
                        <path d="M856.414,1393.949L856.414,2646.141L1600.012,2061.559L990.82,1501.77L856.414,1393.949ZM853.012,2683.789C848.477,2683.789 843.91,2682.77 839.625,2680.691C829.027,2675.539 822.445,2665.02 822.445,2653.238L822.445,1323.148L1012.961,1475.988L1013.379,1476.371L1652.41,2063.578L871.824,2677.23C866.309,2681.57 859.695,2683.789 853.012,2683.789Z"/>
                    </clipPath>
                    <g clip-path="url(#_clip3)">
                        <g>
                            <g>
                                <g>
                                    <clipPath id="_clip4">
                                        <path d="M856.414,1393.949L856.414,2646.141L1600.012,2061.559L990.82,1501.77L856.414,1393.949ZM853.012,2683.789C848.477,2683.789 843.91,2682.77 839.625,2680.691C829.027,2675.539 822.445,2665.02 822.445,2653.238L822.445,1323.148L1012.961,1475.988L1013.379,1476.371L1652.41,2063.578L871.824,2677.23C866.309,2681.57 859.695,2683.789 853.012,2683.789"/>
                                    </clipPath>
                                    <g clip-path="url(#_clip4)">
                                        <rect x="822.445" y="1323.148" width="829.965" height="1360.641" style="fill:rgb(204,185,157);"/>
                                    </g>
                                </g>
                            </g>
                        </g>
                    </g>
                </g>
            </g>
        </g>
        <g transform="matrix(1.672306,0,0,1.672306,-1344.432476,-1344.348025)">
            <g>
                <g>
                    <clipPath id="_clip5">
                        <path d="M2397.051,2054.109L3138.559,2637.301L3138.559,1385.121L3031.371,1471.148L2397.051,2054.109ZM3172.531,2707.23L2344.66,2056.121L3009.66,1445.012L3172.531,1314.289L3172.531,2707.23Z"/>
                    </clipPath>
                    <g clip-path="url(#_clip5)">
                        <g>
                            <g>
                                <g>
                                    <clipPath id="_clip6">
                                        <path d="M2397.051,2054.109L3138.559,2637.301L3138.559,1385.121L3031.371,1471.148L2397.051,2054.109ZM3172.531,2707.23L2344.66,2056.121L3009.66,1445.012L3172.531,1314.289L3172.531,2707.23"/>
                                    </clipPath>
                                    <g clip-path="url(#_clip6)">
                                        <rect x="2344.66" y="1314.289" width="827.871" height="1392.941" style="fill:rgb(204,185,157);"/>
                                    </g>
                                </g>
                            </g>
                        </g>
                    </g>
                </g>
            </g>
        </g>
        <g transform="matrix(1.672306,0,0,1.672306,-1344.432476,-1344.348025)">
            <g>
                <g>
                    <clipPath id="_clip7">
                        <path d="M863.953,1318.66L1013.621,1458.961L1637.941,2044.23L1643.488,2049.441L1912.801,2301.898C1957.84,2344.148 2031.141,2344.148 2076.199,2301.898L2354.461,2041.012L2359.09,2036.648L3008.559,1427.719L3124.922,1318.609C3097.621,1296.91 3064.941,1284.73 3033.031,1284.73L956.047,1284.73C924.215,1284.73 891.461,1296.93 863.953,1318.66ZM1994.488,2367.879C1954.828,2367.879 1917.48,2353.34 1889.328,2326.93L1620.012,2074.461L1614.469,2069.25L990.156,1483.988L813.613,1318.5L826.473,1305.969C862.711,1270.672 909.941,1250.422 956.047,1250.422L3033.031,1250.422C3079.281,1250.422 3126.441,1270.68 3162.398,1306.02L3175.148,1318.551L2099.672,2326.93C2071.5,2353.34 2034.148,2367.879 1994.488,2367.879Z"/>
                    </clipPath>
                    <g clip-path="url(#_clip7)">
                        <g>
                            <g>
                                <g>
                                    <clipPath id="_clip8">
                                        <path d="M863.953,1318.66L1013.621,1458.961L1637.941,2044.23L1643.488,2049.441L1912.801,2301.898C1957.84,2344.148 2031.141,2344.148 2076.199,2301.898L2354.461,2041.012L2359.09,2036.648L3008.559,1427.719L3124.922,1318.609C3097.621,1296.91 3064.941,1284.73 3033.031,1284.73L956.047,1284.73C924.215,1284.73 891.461,1296.93 863.953,1318.66ZM1994.488,2367.879C1954.828,2367.879 1917.48,2353.34 1889.328,2326.93L1620.012,2074.461L1614.469,2069.25L990.156,1483.988L813.613,1318.5L826.473,1305.969C862.711,1270.672 909.941,1250.422 956.047,1250.422L3033.031,1250.422C3079.281,1250.422 3126.441,1270.68 3162.398,1306.02L3175.148,1318.551L2099.672,2326.93C2071.5,2353.34 2034.148,2367.879 1994.488,2367.879"/>
                                    </clipPath>
                                    <g clip-path="url(#_clip8)">
                                        <rect x="813.613" y="1250.422" width="2361.535" height="1117.457" style="fill:rgb(204,185,157);"/>
                                    </g>
                                </g>
                            </g>
                        </g>
                    </g>
                </g>
            </g>
        </g>
    </g>
</svg>
